<svg width="364.65000000000003" height="58.824770388823566" viewBox="0 0 370.3333333333333 59.74159687552719" class="looka-1j8o68f"><defs id="SvgjsDefs2466"><linearGradient id="SvgjsLinearGradient2471"><stop id="SvgjsStop2472" stop-color="#51504f" offset="0"></stop><stop id="SvgjsStop2473" stop-color="#939598" offset="0.5"></stop><stop id="SvgjsStop2474" stop-color="#51504f" offset="1"></stop></linearGradient><linearGradient id="SvgjsLinearGradient2475"><stop id="SvgjsStop2476" stop-color="#51504f" offset="0"></stop><stop id="SvgjsStop2477" stop-color="#939598" offset="0.5"></stop><stop id="SvgjsStop2478" stop-color="#51504f" offset="1"></stop></linearGradient></defs><g id="SvgjsG2467" featurekey="xG21Y3-0" transform="matrix(1.3889560025466454,0,0,1.3889560025466454,-2.7795253821027797,-6.2420556415316835)" fill="url(#SvgjsLinearGradient2471)"><g xmlns="http://www.w3.org/2000/svg"><path d="M37.1411743,43.1359406v3.3699951c0,0.5499878-0.4500122,1-1,1H6.8111587c-0.5499878,0-1-0.4500122-1-1v-3.2200317   c0-2.8399658,2.309998-5.1499634,5.1500249-5.1499634h21.1799908   C34.8911743,38.1359406,37.1411743,40.3759308,37.1411743,43.1359406z"></path><path d="M16.5997944,40.1336212c-0.3457031,0-0.6816406-0.1791992-0.8671875-0.5L4.0724502,19.4339161   c-0.2749021-0.4765625-0.1137693-1.0854492,0.3608398-1.362793l0.1201172-0.0703125   c0.4794922-0.2788086,1.0893555-0.1186523,1.3681641,0.3574219c0.0952148,0.1625977,0.1391602,0.3408203,0.137207,0.5161133   l11.40625,19.7592754c0.2758789,0.4785156,0.1118164,1.0898438-0.3662109,1.3662109   C16.941103,40.0906525,16.769228,40.1336212,16.5997944,40.1336212z"></path><path d="M28.0197163,40.1336212c-0.3457031,0-0.6816406-0.1791992-0.8666992-0.5L14.8732319,18.3738575   c-0.2763672-0.4780273-0.112793-1.0898438,0.3657227-1.3657227c0.4770508-0.2788086,1.0893555-0.1123047,1.3657227,0.3657227   l12.2797852,21.2597637c0.2763672,0.4780273,0.112793,1.0898438-0.3657227,1.3657227   C28.3615131,40.0906525,28.1891499,40.1336212,28.0197163,40.1336212z"></path><path d="M25.3185444,12.0540333h-10.159668c-0.5522461,0-1-0.4477539-1-1s0.4477539-1,1-1h10.159668c0.5522461,0,1,0.4477539,1,1   S25.8707905,12.0540333,25.3185444,12.0540333z"></path><path d="M25.3185444,18.8738575h-9.5795898c-0.5522461,0-1-0.4477539-1-1s0.4477539-1,1-1h9.5795898c0.5522461,0,1,0.4477539,1,1   S25.8707905,18.8738575,25.3185444,18.8738575z"></path><path d="M33.1411743,9.905901v9.0500488c0,0.4099731-0.1199951,0.789978-0.3500366,1.1199951   c-0.3399658,0.5599976-0.9899883,0.9199829-1.6900005,0.9199829h-4.7399902c-1.1300049,0-2.039978-0.9199829-2.039978-2.039978   V9.905901c0-1.1299438,0.9099731-2.0499878,2.039978-2.0499878h4.7399902c0.3800049,0,0.75,0.1099854,1.0800152,0.3099976   C32.781189,8.5459156,33.1411743,9.19594,33.1411743,9.905901z"></path><path d="M48.9386597,10.7644825c-0.1176758,0-0.2373047-0.0209961-0.3535156-0.0649414L37.7423706,6.5984669L32.15448,9.8762989   c-0.4760723,0.2792969-1.0888653,0.1191406-1.3681622-0.3564453c-0.2797852-0.4760742-0.1201172-1.0888672,0.3564453-1.3681641   L37.1427612,4.63167c0.2607422-0.1533203,0.5766602-0.1796875,0.859375-0.0732336l11.2900391,4.2700109   c0.5166016,0.1958008,0.7773438,0.7729492,0.5820313,1.2890625C49.7228394,10.5179005,49.3424683,10.7639942,48.9386597,10.7644825   z"></path><path d="M37.7687378,23.8137989c-0.1713867,0-0.3417969-0.0439453-0.4946289-0.1308594l-5.7998028-3.2998047   c-0.4799805-0.2729492-0.6474609-0.8837891-0.3745117-1.3637695c0.2724609-0.4790039,0.8833008-0.6484375,1.3637676-0.3745117   l5.3852539,3.0639648l10.7856445-4.2163086c0.5170898-0.2011719,1.0947266,0.0532227,1.2954102,0.5668945   c0.2011719,0.5146484-0.0527344,1.0947266-0.5668945,1.2954102l-11.2299805,4.3901367   C38.0153198,23.7908497,37.8917847,23.8137989,37.7687378,23.8137989z"></path><path d="M16.0411396,10.5759449c-1.3200073-2.4000244-3.8299561-3.8900146-6.5599976-3.8900146   c-4.1300054,0-7.4799805,3.3499756-7.4799805,7.4699707c0,2.0599976,0.8699951,4.0500488,2.3699949,5.4300537   c1.3800049,1.3199463,3.2000122,2.039978,5.1099858,2.039978c2.4299927,0,4.710022-1.1900024,6.0700073-3.1400146   c0.2200317-0.289978,0.4199829-0.6199951,0.6000366-0.9799805c0.5299683-1.0300293,0.7999878-2.1600342,0.7999878-3.3500366   C16.9511738,12.8859425,16.6311665,11.6459522,16.0411396,10.5759449z M9.4711323,17.6859303   c-1.9399419,0-3.5299687-1.5900269-3.5299687-3.5300293c0-1.9499512,1.5900269-3.5299683,3.5299687-3.5299683   c1.9500122,0,3.5300293,1.5800171,3.5300293,3.5299683C13.0011616,16.0959034,11.4211445,17.6859303,9.4711323,17.6859303z"></path></g></g><g id="SvgjsG2468" featurekey="n48U4P-0" transform="matrix(2.220131974175247,0,0,2.220131974175247,83.9363060181229,2.05568972486323)" fill="url(#SvgjsLinearGradient2475)"><path d="M9.08 5.720000000000001 c1.2 0 2.1968 0.37 2.99 1.11 s1.19 1.6833 1.19 2.83 c0 1.7867 -0.75334 2.98 -2.26 3.58 l0 0.04 c0.50666 0.14666 0.90332 0.39 1.19 0.73 s0.50332 0.73666 0.64998 1.19 s0.24 1.18 0.28 2.18 c0.05334 1.3067 0.24 2.18 0.56 2.62 l-3.14 0 c-0.17334 -0.44 -0.30668 -1.2667 -0.40002 -2.48 c-0.10666 -1.28 -0.34 -2.1166 -0.7 -2.51 s-0.94666 -0.59 -1.76 -0.59 l-3.16 0 l0 5.58 l-3.14 0 l0 -14.28 l7.7 0 z M7.98 12.18 c0.66666 0 1.19 -0.15 1.57 -0.45 s0.57 -0.83 0.57 -1.59 c0 -0.72 -0.18666 -1.23 -0.56 -1.53 s-0.90668 -0.45 -1.6 -0.45 l-3.44 0 l0 4.02 l3.46 0 z M17.64 5.720000000000001 l3.18 10.04 l0.04 0 l3.22 -10.04 l3.24 0 l-4.74 14.28 l-3.54 0 l-4.64 -14.28 l3.24 0 z M30.239999999999995 5.720000000000001 l3.18 10.04 l0.04 0 l3.22 -10.04 l3.24 0 l-4.74 14.28 l-3.54 0 l-4.64 -14.28 l3.24 0 z M53.1 5.380000000000001 c1.6667 0 3.0666 0.47 4.2 1.41 s1.7867 2.1834 1.96 3.73 l-3.04 0 c-0.10666 -0.70666 -0.46 -1.3 -1.06 -1.78 s-1.2867 -0.72 -2.06 -0.72 c-1.2267 0 -2.18 0.44 -2.86 1.32 s-1.02 2.0734 -1.02 3.58 c0 1.4667 0.34334 2.63 1.03 3.49 s1.6367 1.29 2.85 1.29 c0.90666 0 1.64 -0.27666 2.2 -0.83 s0.90666 -1.3433 1.04 -2.37 l3.04 0 c-0.16 1.8133 -0.81 3.24 -1.95 4.28 s-2.5834 1.56 -4.33 1.56 c-2.0934 0 -3.7866 -0.69 -5.08 -2.07 s-1.94 -3.1634 -1.94 -5.35 c0 -2.2134 0.64 -4.0234 1.92 -5.43 s2.98 -2.11 5.1 -2.11 z M68.64 5.720000000000001 l5.34 14.28 l-3.26 0 l-1.08 -3.18 l-5.34 0 l-1.12 3.18 l-3.18 0 l5.42 -14.28 l3.22 0 z M66.98 9.24 l-1.86 5.24 l3.7 0 l-1.8 -5.24 l-0.04 0 z M81.68 5.720000000000001 c1.52 0 2.72 0.41334 3.6 1.24 s1.32 1.94 1.32 3.34 c0 1.4133 -0.44 2.53 -1.32 3.35 s-2.0734 1.23 -3.58 1.23 l-3.34 0 l0 5.12 l-3.14 0 l0 -14.28 l6.46 0 z M80.86 12.440000000000001 c0.90666 0 1.5833 -0.16666 2.03 -0.5 s0.67 -0.88 0.67 -1.64 c0 -0.73334 -0.21666 -1.2733 -0.65 -1.62 s-1.11 -0.52 -2.03 -0.52 l-2.52 0 l0 4.28 l2.5 0 z M91.7 5.720000000000001 l0 14.28 l-3.14 0 l0 -14.28 l3.14 0 z M105.04000000000002 5.720000000000001 l0 2.64 l-4.28 0 l0 11.64 l-3.14 0 l0 -11.64 l-4.28 0 l0 -2.64 l11.7 0 z M112.32000000000001 5.720000000000001 l5.34 14.28 l-3.26 0 l-1.08 -3.18 l-5.34 0 l-1.12 3.18 l-3.18 0 l5.42 -14.28 l3.22 0 z M110.66000000000001 9.24 l-1.86 5.24 l3.7 0 l-1.8 -5.24 l-0.04 0 z M122.04 5.720000000000001 l0 11.64 l6.96 0 l0 2.64 l-10.1 0 l0 -14.28 l3.14 0 z"></path></g></svg>